<mxfile host="app.diagrams.net" modified="2021-05-25T12:47:54.298Z" agent="5.0 (Macintosh; Intel Mac OS X 10_15_6) AppleWebKit/605.1.15 (KHTML, like Gecko) Version/14.0.3 Safari/605.1.15" etag="-Qt68zgBl4aZXaSb4ZQe" version="14.7.0" type="github">
  <diagram id="Tz94heCCpqs6r6Kg0a_S" name="Page-1">
    <mxGraphModel dx="2250" dy="1346" grid="1" gridSize="10" guides="1" tooltips="1" connect="1" arrows="1" fold="1" page="1" pageScale="1" pageWidth="1169" pageHeight="827" math="0" shadow="0">
      <root>
        <mxCell id="0" />
        <mxCell id="1" parent="0" />
        <mxCell id="b5tYH_EXLa9vp5NdrSGa-64" value="" style="rounded=0;whiteSpace=wrap;html=1;labelBackgroundColor=none;opacity=20;fillColor=#ffe6cc;strokeColor=#d79b00;" parent="1" vertex="1">
          <mxGeometry x="480" y="90" width="220" height="270" as="geometry" />
        </mxCell>
        <mxCell id="b5tYH_EXLa9vp5NdrSGa-3" value="" style="rounded=0;whiteSpace=wrap;html=1;verticalAlign=middle;" parent="1" vertex="1">
          <mxGeometry x="480" y="44" width="220" height="366" as="geometry" />
        </mxCell>
        <mxCell id="b5tYH_EXLa9vp5NdrSGa-8" value="HOME" style="text;html=1;strokeColor=none;fillColor=none;align=center;verticalAlign=middle;whiteSpace=wrap;rounded=0;" parent="1" vertex="1">
          <mxGeometry x="480" width="70" height="20" as="geometry" />
        </mxCell>
        <mxCell id="b5tYH_EXLa9vp5NdrSGa-10" value="Page 2 ATTRACTION" style="text;html=1;strokeColor=none;fillColor=none;align=center;verticalAlign=middle;whiteSpace=wrap;rounded=0;" parent="1" vertex="1">
          <mxGeometry x="140" y="380" width="140" height="20" as="geometry" />
        </mxCell>
        <mxCell id="b5tYH_EXLa9vp5NdrSGa-12" value="Video or Image-slider" style="verticalLabelPosition=middle;shadow=0;dashed=0;align=center;html=1;verticalAlign=middle;strokeWidth=1;shape=mxgraph.mockup.graphics.simpleIcon;strokeColor=#999999;fillColor=#ffffff;labelPosition=center;" parent="1" vertex="1">
          <mxGeometry x="490" y="90" width="200" height="110" as="geometry" />
        </mxCell>
        <mxCell id="b5tYH_EXLa9vp5NdrSGa-16" value="image&lt;br&gt;link to attractions" style="verticalLabelPosition=middle;shadow=0;dashed=0;align=center;html=1;verticalAlign=middle;strokeWidth=1;shape=mxgraph.mockup.graphics.simpleIcon;strokeColor=#999999;fillColor=#ffffff;labelPosition=center;" parent="1" vertex="1">
          <mxGeometry x="490" y="210" width="90" height="65" as="geometry" />
        </mxCell>
        <mxCell id="b5tYH_EXLa9vp5NdrSGa-21" value="image&lt;br&gt;link to infos" style="verticalLabelPosition=middle;shadow=0;dashed=0;align=center;html=1;verticalAlign=middle;strokeWidth=1;shape=mxgraph.mockup.graphics.simpleIcon;strokeColor=#999999;fillColor=#ffffff;labelPosition=center;" parent="1" vertex="1">
          <mxGeometry x="600" y="210" width="90" height="65" as="geometry" />
        </mxCell>
        <mxCell id="b5tYH_EXLa9vp5NdrSGa-15" value="&lt;div&gt;Logo&lt;/div&gt;" style="verticalLabelPosition=middle;shadow=0;dashed=0;align=center;html=1;verticalAlign=middle;strokeWidth=1;shape=mxgraph.mockup.graphics.simpleIcon;strokeColor=#999999;fillColor=#ffffff;labelPosition=center;" parent="1" vertex="1">
          <mxGeometry x="490" y="50" width="30" height="34" as="geometry" />
        </mxCell>
        <mxCell id="b5tYH_EXLa9vp5NdrSGa-24" value="" style="endArrow=none;html=1;strokeWidth=2;" parent="1" edge="1">
          <mxGeometry width="50" height="50" relative="1" as="geometry">
            <mxPoint x="670" y="60" as="sourcePoint" />
            <mxPoint x="690" y="60" as="targetPoint" />
          </mxGeometry>
        </mxCell>
        <mxCell id="b5tYH_EXLa9vp5NdrSGa-27" value="" style="endArrow=none;html=1;strokeWidth=2;" parent="1" edge="1">
          <mxGeometry width="50" height="50" relative="1" as="geometry">
            <mxPoint x="670" y="64.92" as="sourcePoint" />
            <mxPoint x="690" y="64.92" as="targetPoint" />
          </mxGeometry>
        </mxCell>
        <mxCell id="b5tYH_EXLa9vp5NdrSGa-28" value="" style="endArrow=none;html=1;strokeWidth=2;" parent="1" edge="1">
          <mxGeometry width="50" height="50" relative="1" as="geometry">
            <mxPoint x="670" y="70" as="sourcePoint" />
            <mxPoint x="690" y="70" as="targetPoint" />
          </mxGeometry>
        </mxCell>
        <mxCell id="b5tYH_EXLa9vp5NdrSGa-29" value="" style="shape=or;whiteSpace=wrap;html=1;gradientColor=none;rotation=-180;" parent="1" vertex="1">
          <mxGeometry x="670" y="80" width="30" height="40" as="geometry" />
        </mxCell>
        <mxCell id="b5tYH_EXLa9vp5NdrSGa-30" value="xy theme park" style="text;html=1;strokeColor=none;fillColor=none;align=center;verticalAlign=middle;whiteSpace=wrap;rounded=0;" parent="1" vertex="1">
          <mxGeometry x="540" y="57" width="100" height="20" as="geometry" />
        </mxCell>
        <mxCell id="b5tYH_EXLa9vp5NdrSGa-32" value="special offers / news" style="rounded=0;whiteSpace=wrap;html=1;gradientColor=none;" parent="1" vertex="1">
          <mxGeometry x="490" y="290" width="200" height="60" as="geometry" />
        </mxCell>
        <mxCell id="b5tYH_EXLa9vp5NdrSGa-33" value="contact &amp;nbsp;/ address &amp;nbsp;/ map" style="rounded=0;whiteSpace=wrap;html=1;gradientColor=none;" parent="1" vertex="1">
          <mxGeometry x="490" y="370" width="200" height="30" as="geometry" />
        </mxCell>
        <mxCell id="b5tYH_EXLa9vp5NdrSGa-35" value="" style="rounded=0;whiteSpace=wrap;html=1;verticalAlign=middle;" parent="1" vertex="1">
          <mxGeometry x="150" y="414" width="220" height="536" as="geometry" />
        </mxCell>
        <mxCell id="b5tYH_EXLa9vp5NdrSGa-38" value="image-gallery / videos&lt;br&gt;" style="verticalLabelPosition=middle;shadow=0;dashed=0;align=center;html=1;verticalAlign=middle;strokeWidth=1;shape=mxgraph.mockup.graphics.simpleIcon;strokeColor=#999999;fillColor=#ffffff;labelPosition=center;" parent="1" vertex="1">
          <mxGeometry x="160" y="520" width="200" height="90" as="geometry" />
        </mxCell>
        <mxCell id="b5tYH_EXLa9vp5NdrSGa-39" value="&lt;div&gt;Logo&lt;/div&gt;" style="verticalLabelPosition=middle;shadow=0;dashed=0;align=center;html=1;verticalAlign=middle;strokeWidth=1;shape=mxgraph.mockup.graphics.simpleIcon;strokeColor=#999999;fillColor=#ffffff;labelPosition=center;" parent="1" vertex="1">
          <mxGeometry x="160" y="420" width="30" height="34" as="geometry" />
        </mxCell>
        <mxCell id="b5tYH_EXLa9vp5NdrSGa-40" value="" style="endArrow=none;html=1;strokeWidth=2;" parent="1" edge="1">
          <mxGeometry width="50" height="50" relative="1" as="geometry">
            <mxPoint x="340" y="430" as="sourcePoint" />
            <mxPoint x="360" y="430" as="targetPoint" />
          </mxGeometry>
        </mxCell>
        <mxCell id="b5tYH_EXLa9vp5NdrSGa-41" value="" style="endArrow=none;html=1;strokeWidth=2;" parent="1" edge="1">
          <mxGeometry width="50" height="50" relative="1" as="geometry">
            <mxPoint x="340" y="434.91999999999996" as="sourcePoint" />
            <mxPoint x="360" y="434.91999999999996" as="targetPoint" />
          </mxGeometry>
        </mxCell>
        <mxCell id="b5tYH_EXLa9vp5NdrSGa-42" value="" style="endArrow=none;html=1;strokeWidth=2;" parent="1" edge="1">
          <mxGeometry width="50" height="50" relative="1" as="geometry">
            <mxPoint x="340" y="440" as="sourcePoint" />
            <mxPoint x="360" y="440" as="targetPoint" />
          </mxGeometry>
        </mxCell>
        <mxCell id="b5tYH_EXLa9vp5NdrSGa-43" value="" style="shape=or;whiteSpace=wrap;html=1;gradientColor=none;rotation=-180;" parent="1" vertex="1">
          <mxGeometry x="340" y="450" width="30" height="40" as="geometry" />
        </mxCell>
        <mxCell id="b5tYH_EXLa9vp5NdrSGa-44" value="xy theme park" style="text;html=1;strokeColor=none;fillColor=none;align=center;verticalAlign=middle;whiteSpace=wrap;rounded=0;" parent="1" vertex="1">
          <mxGeometry x="210" y="427" width="100" height="20" as="geometry" />
        </mxCell>
        <mxCell id="b5tYH_EXLa9vp5NdrSGa-45" value="Ride 1&amp;nbsp;" style="rounded=0;whiteSpace=wrap;html=1;gradientColor=none;" parent="1" vertex="1">
          <mxGeometry x="160" y="480" width="200" height="30" as="geometry" />
        </mxCell>
        <mxCell id="b5tYH_EXLa9vp5NdrSGa-47" value="" style="rounded=0;whiteSpace=wrap;html=1;verticalAlign=middle;" parent="1" vertex="1">
          <mxGeometry x="830" y="410" width="220" height="700" as="geometry" />
        </mxCell>
        <mxCell id="b5tYH_EXLa9vp5NdrSGa-51" value="&lt;div&gt;Logo&lt;/div&gt;" style="verticalLabelPosition=middle;shadow=0;dashed=0;align=center;html=1;verticalAlign=middle;strokeWidth=1;shape=mxgraph.mockup.graphics.simpleIcon;strokeColor=#999999;fillColor=#ffffff;labelPosition=center;" parent="1" vertex="1">
          <mxGeometry x="830" y="420" width="30" height="34" as="geometry" />
        </mxCell>
        <mxCell id="b5tYH_EXLa9vp5NdrSGa-52" value="" style="endArrow=none;html=1;strokeWidth=2;" parent="1" edge="1">
          <mxGeometry width="50" height="50" relative="1" as="geometry">
            <mxPoint x="1010" y="430" as="sourcePoint" />
            <mxPoint x="1030" y="430" as="targetPoint" />
          </mxGeometry>
        </mxCell>
        <mxCell id="b5tYH_EXLa9vp5NdrSGa-53" value="" style="endArrow=none;html=1;strokeWidth=2;" parent="1" edge="1">
          <mxGeometry width="50" height="50" relative="1" as="geometry">
            <mxPoint x="1010" y="434.9200000000001" as="sourcePoint" />
            <mxPoint x="1030" y="434.9200000000001" as="targetPoint" />
          </mxGeometry>
        </mxCell>
        <mxCell id="b5tYH_EXLa9vp5NdrSGa-54" value="" style="endArrow=none;html=1;strokeWidth=2;" parent="1" edge="1">
          <mxGeometry width="50" height="50" relative="1" as="geometry">
            <mxPoint x="1010" y="440" as="sourcePoint" />
            <mxPoint x="1030" y="440" as="targetPoint" />
          </mxGeometry>
        </mxCell>
        <mxCell id="b5tYH_EXLa9vp5NdrSGa-56" value="xy theme park" style="text;html=1;strokeColor=none;fillColor=none;align=center;verticalAlign=middle;whiteSpace=wrap;rounded=0;" parent="1" vertex="1">
          <mxGeometry x="880" y="427" width="100" height="20" as="geometry" />
        </mxCell>
        <mxCell id="b5tYH_EXLa9vp5NdrSGa-57" value="special offers" style="rounded=0;whiteSpace=wrap;html=1;gradientColor=none;" parent="1" vertex="1">
          <mxGeometry x="840" y="490" width="200" height="60" as="geometry" />
        </mxCell>
        <mxCell id="b5tYH_EXLa9vp5NdrSGa-59" value="" style="rounded=0;whiteSpace=wrap;html=1;labelBackgroundColor=none;opacity=20;fillColor=#fff2cc;strokeColor=#d6b656;" parent="1" vertex="1">
          <mxGeometry x="480" y="44" width="220" height="46" as="geometry" />
        </mxCell>
        <mxCell id="b5tYH_EXLa9vp5NdrSGa-62" value="" style="endArrow=classic;html=1;strokeWidth=1;" parent="1" target="b5tYH_EXLa9vp5NdrSGa-59" edge="1">
          <mxGeometry width="50" height="50" relative="1" as="geometry">
            <mxPoint x="690" y="20" as="sourcePoint" />
            <mxPoint x="800" y="34" as="targetPoint" />
            <Array as="points" />
          </mxGeometry>
        </mxCell>
        <mxCell id="b5tYH_EXLa9vp5NdrSGa-63" value="header&amp;nbsp;" style="text;html=1;strokeColor=none;fillColor=none;align=center;verticalAlign=middle;whiteSpace=wrap;rounded=0;labelBackgroundColor=none;opacity=20;" parent="1" vertex="1">
          <mxGeometry x="680" y="10" width="40" height="20" as="geometry" />
        </mxCell>
        <mxCell id="b5tYH_EXLa9vp5NdrSGa-65" value="" style="endArrow=classic;html=1;strokeWidth=1;" parent="1" edge="1">
          <mxGeometry width="50" height="50" relative="1" as="geometry">
            <mxPoint x="751.06" y="120" as="sourcePoint" />
            <mxPoint x="699.996170212766" y="144" as="targetPoint" />
            <Array as="points" />
          </mxGeometry>
        </mxCell>
        <mxCell id="b5tYH_EXLa9vp5NdrSGa-66" value="main&amp;nbsp;" style="text;html=1;strokeColor=none;fillColor=none;align=center;verticalAlign=middle;whiteSpace=wrap;rounded=0;labelBackgroundColor=none;opacity=20;" parent="1" vertex="1">
          <mxGeometry x="741.06" y="110" width="40" height="20" as="geometry" />
        </mxCell>
        <mxCell id="b5tYH_EXLa9vp5NdrSGa-67" value="" style="endArrow=classic;html=1;strokeWidth=1;" parent="1" edge="1">
          <mxGeometry width="50" height="50" relative="1" as="geometry">
            <mxPoint x="761.06" y="370" as="sourcePoint" />
            <mxPoint x="709.996170212766" y="394" as="targetPoint" />
            <Array as="points" />
          </mxGeometry>
        </mxCell>
        <mxCell id="b5tYH_EXLa9vp5NdrSGa-68" value="footer" style="text;html=1;strokeColor=none;fillColor=none;align=center;verticalAlign=middle;whiteSpace=wrap;rounded=0;labelBackgroundColor=none;opacity=20;" parent="1" vertex="1">
          <mxGeometry x="751.06" y="360" width="40" height="20" as="geometry" />
        </mxCell>
        <mxCell id="b5tYH_EXLa9vp5NdrSGa-69" value="" style="rounded=0;whiteSpace=wrap;html=1;labelBackgroundColor=none;opacity=20;fillColor=#d5e8d4;strokeColor=#82b366;" parent="1" vertex="1">
          <mxGeometry x="480" y="362" width="220" height="46" as="geometry" />
        </mxCell>
        <mxCell id="b5tYH_EXLa9vp5NdrSGa-70" value="" style="curved=1;endArrow=classic;html=1;strokeWidth=1;" parent="1" source="b5tYH_EXLa9vp5NdrSGa-16" edge="1">
          <mxGeometry width="50" height="50" relative="1" as="geometry">
            <mxPoint x="310" y="210" as="sourcePoint" />
            <mxPoint x="190" y="370" as="targetPoint" />
            <Array as="points">
              <mxPoint x="410" y="234" />
              <mxPoint x="340" y="250" />
            </Array>
          </mxGeometry>
        </mxCell>
        <mxCell id="b5tYH_EXLa9vp5NdrSGa-71" value="" style="curved=1;endArrow=classic;html=1;strokeWidth=1;" parent="1" source="b5tYH_EXLa9vp5NdrSGa-21" edge="1">
          <mxGeometry width="50" height="50" relative="1" as="geometry">
            <mxPoint x="730" y="239" as="sourcePoint" />
            <mxPoint x="950" y="410" as="targetPoint" />
            <Array as="points">
              <mxPoint x="810" y="240" />
              <mxPoint x="890" y="270" />
            </Array>
          </mxGeometry>
        </mxCell>
        <mxCell id="b5tYH_EXLa9vp5NdrSGa-72" value="buy ticket" style="text;html=1;strokeColor=none;fillColor=none;align=center;verticalAlign=middle;whiteSpace=wrap;rounded=0;labelBackgroundColor=none;opacity=20;" parent="1" vertex="1">
          <mxGeometry x="670" y="90" width="40" height="20" as="geometry" />
        </mxCell>
        <mxCell id="b5tYH_EXLa9vp5NdrSGa-73" value="buy ticket" style="text;html=1;strokeColor=none;fillColor=none;align=center;verticalAlign=middle;whiteSpace=wrap;rounded=0;labelBackgroundColor=none;opacity=20;" parent="1" vertex="1">
          <mxGeometry x="335" y="460" width="40" height="20" as="geometry" />
        </mxCell>
        <mxCell id="b5tYH_EXLa9vp5NdrSGa-75" value="image&lt;br&gt;link to infos" style="verticalLabelPosition=middle;shadow=0;dashed=0;align=center;html=1;verticalAlign=middle;strokeWidth=1;shape=mxgraph.mockup.graphics.simpleIcon;strokeColor=#999999;fillColor=#ffffff;labelPosition=center;" parent="1" vertex="1">
          <mxGeometry x="160" y="662" width="200" height="90" as="geometry" />
        </mxCell>
        <mxCell id="b5tYH_EXLa9vp5NdrSGa-76" value="Ride 2" style="rounded=0;whiteSpace=wrap;html=1;gradientColor=none;" parent="1" vertex="1">
          <mxGeometry x="160" y="622" width="200" height="30" as="geometry" />
        </mxCell>
        <mxCell id="b5tYH_EXLa9vp5NdrSGa-77" value="image&lt;br&gt;link to infos" style="verticalLabelPosition=middle;shadow=0;dashed=0;align=center;html=1;verticalAlign=middle;strokeWidth=1;shape=mxgraph.mockup.graphics.simpleIcon;strokeColor=#999999;fillColor=#ffffff;labelPosition=center;" parent="1" vertex="1">
          <mxGeometry x="160" y="810" width="200" height="90" as="geometry" />
        </mxCell>
        <mxCell id="b5tYH_EXLa9vp5NdrSGa-78" value="Events and food" style="rounded=0;whiteSpace=wrap;html=1;gradientColor=none;" parent="1" vertex="1">
          <mxGeometry x="160" y="770" width="200" height="30" as="geometry" />
        </mxCell>
        <mxCell id="ioKyxTYpM8XxDTt9hKgP-1" value="" style="curved=1;endArrow=classic;html=1;strokeWidth=1;" edge="1" parent="1">
          <mxGeometry width="50" height="50" relative="1" as="geometry">
            <mxPoint x="690" y="101.81818181818176" as="sourcePoint" />
            <mxPoint x="960" y="400" as="targetPoint" />
            <Array as="points">
              <mxPoint x="810" y="100" />
              <mxPoint x="890" y="130" />
            </Array>
          </mxGeometry>
        </mxCell>
        <mxCell id="ioKyxTYpM8XxDTt9hKgP-2" value="" style="curved=1;endArrow=classic;html=1;strokeWidth=1;startArrow=none;exitX=1;exitY=0.5;exitDx=0;exitDy=0;" edge="1" parent="1" source="b5tYH_EXLa9vp5NdrSGa-73">
          <mxGeometry width="50" height="50" relative="1" as="geometry">
            <mxPoint x="490" y="493" as="sourcePoint" />
            <mxPoint x="800" y="510" as="targetPoint" />
            <Array as="points">
              <mxPoint x="560" y="492.5" />
            </Array>
          </mxGeometry>
        </mxCell>
        <mxCell id="ioKyxTYpM8XxDTt9hKgP-4" value="" style="verticalLabelPosition=bottom;shadow=0;dashed=0;align=center;html=1;verticalAlign=top;strokeWidth=1;shape=mxgraph.mockup.misc.map;labelBackgroundColor=none;gradientColor=none;opacity=20;" vertex="1" parent="1">
          <mxGeometry x="840" y="900" width="200" height="170" as="geometry" />
        </mxCell>
        <mxCell id="ioKyxTYpM8XxDTt9hKgP-6" value="" style="curved=1;endArrow=classic;html=1;strokeWidth=1;" edge="1" parent="1">
          <mxGeometry width="50" height="50" relative="1" as="geometry">
            <mxPoint x="600" y="420" as="sourcePoint" />
            <mxPoint x="810" y="980" as="targetPoint" />
            <Array as="points">
              <mxPoint x="590" y="540" />
              <mxPoint x="600" y="630" />
              <mxPoint x="620" y="790" />
            </Array>
          </mxGeometry>
        </mxCell>
        <mxCell id="ioKyxTYpM8XxDTt9hKgP-9" value="address &amp;amp; map" style="rounded=0;whiteSpace=wrap;html=1;gradientColor=none;" vertex="1" parent="1">
          <mxGeometry x="840" y="860" width="200" height="30" as="geometry" />
        </mxCell>
        <mxCell id="ioKyxTYpM8XxDTt9hKgP-10" value="opening hours" style="rounded=0;whiteSpace=wrap;html=1;gradientColor=none;" vertex="1" parent="1">
          <mxGeometry x="840" y="710" width="200" height="30" as="geometry" />
        </mxCell>
        <mxCell id="ioKyxTYpM8XxDTt9hKgP-11" value="Ticket option 1 single enty" style="rounded=0;whiteSpace=wrap;html=1;gradientColor=none;" vertex="1" parent="1">
          <mxGeometry x="840" y="580" width="200" height="50" as="geometry" />
        </mxCell>
        <mxCell id="ioKyxTYpM8XxDTt9hKgP-12" value="Ticket option 2 group entry" style="rounded=0;whiteSpace=wrap;html=1;gradientColor=none;" vertex="1" parent="1">
          <mxGeometry x="840" y="650" width="200" height="50" as="geometry" />
        </mxCell>
        <mxCell id="ioKyxTYpM8XxDTt9hKgP-13" value="security &amp;amp; behaviour rules" style="rounded=0;whiteSpace=wrap;html=1;gradientColor=none;" vertex="1" parent="1">
          <mxGeometry x="840" y="770" width="200" height="50" as="geometry" />
        </mxCell>
        <mxCell id="ioKyxTYpM8XxDTt9hKgP-15" value="contact" style="rounded=0;whiteSpace=wrap;html=1;gradientColor=none;" vertex="1" parent="1">
          <mxGeometry x="840" y="1080" width="200" height="30" as="geometry" />
        </mxCell>
        <mxCell id="ioKyxTYpM8XxDTt9hKgP-16" value="contact" style="rounded=0;whiteSpace=wrap;html=1;gradientColor=none;" vertex="1" parent="1">
          <mxGeometry x="160" y="910" width="200" height="30" as="geometry" />
        </mxCell>
      </root>
    </mxGraphModel>
  </diagram>
</mxfile>
